HIERARCHY
ROOT Reference
{
  OFFSET 0 0 0
  CHANNELS 6 Xposition Yposition Zposition Zrotation Xrotation Yrotation
  JOINT Hips
  {
    OFFSET 251.394 724.17 483.536
    CHANNELS 3 Zrotation Xrotation Yrotation
    JOINT RightUpLeg
    {
      OFFSET -0.450515 -23.4426 -1.37224
      CHANNELS 3 Zrotation Xrotation Yrotation
      JOINT RightLeg
      {
        OFFSET 112.821 0.0872427 -0.321027
        CHANNELS 3 Zrotation Xrotation Yrotation
        JOINT RightFoot
        {
          OFFSET 105.718 0.000193788 0.0213165
          CHANNELS 3 Zrotation Xrotation Yrotation
          JOINT RightToeBase
          {
            OFFSET 37.638 -0.000116272 0.00224792
            CHANNELS 3 Zrotation Xrotation Yrotation
            JOINT RightToeEnd
            {
              OFFSET 21.2112 0.114605 -0.000138184
              CHANNELS 3 Zrotation Xrotation Yrotation
              End Site
              {
                OFFSET 0 0 0
              }
            }
          }
        }
      }
    }
    JOINT LeftUpLeg
    {
      OFFSET -0.449508 23.4315 -1.37054
      CHANNELS 3 Zrotation Xrotation Yrotation
      JOINT LeftLeg
      {
        OFFSET 112.821 -0.0485242 -0.372458
        CHANNELS 3 Zrotation Xrotation Yrotation
        JOINT LeftFoot
        {
          OFFSET 105.716 0.00496094 -0.0229443
          CHANNELS 3 Zrotation Xrotation Yrotation
          JOINT LeftToeBase
          {
            OFFSET 37.639 0 0.00158905
            CHANNELS 3 Zrotation Xrotation Yrotation
            JOINT LeftToeEnd
            {
              OFFSET 21.2113 -0.125031 -0.00017438
              CHANNELS 3 Zrotation Xrotation Yrotation
              End Site
              {
                OFFSET 0 0 0
              }
            }
          }
        }
      }
    }
    JOINT Spine
    {
      OFFSET -5.01225 0.000463591 -9.60395
      CHANNELS 3 Zrotation Xrotation Yrotation
      JOINT Spine1
      {
        OFFSET 26.0222 -0.000271301 -0.000155029
        CHANNELS 3 Zrotation Xrotation Yrotation
        JOINT Spine2
        {
          OFFSET 27.173 -0.000155029 -0.000310058
          CHANNELS 3 Zrotation Xrotation Yrotation
          JOINT Spine3
          {
            OFFSET 36.3953 -0.000232544 7.75146e-005
            CHANNELS 3 Zrotation Xrotation Yrotation
            JOINT Neck
            {
              OFFSET 36.4331 0 -3.00261
              CHANNELS 3 Zrotation Xrotation Yrotation
              JOINT Head
              {
                OFFSET 23.0407 -0.000232544 -0.000310058
                CHANNELS 3 Zrotation Xrotation Yrotation
                End Site
                {
                  OFFSET 0 0 0
                }
              }
            }
            JOINT LeftShoulder
            {
              OFFSET 20.1317 6.74168 -12.6061
              CHANNELS 3 Zrotation Xrotation Yrotation
              JOINT LeftArm
              {
                OFFSET 34.2172 -5.81359e-005 7.75146e-005
                CHANNELS 3 Zrotation Xrotation Yrotation
                JOINT LeftForeArm
                {
                  OFFSET 65.4129 -0.0821605 0.0585235
                  CHANNELS 3 Zrotation Xrotation Yrotation
                  JOINT LeftHand
                  {
                    OFFSET 67.3883 0.0359667 0.0112396
                    CHANNELS 3 Zrotation Xrotation Yrotation
                    JOINT LeftHandThumb1
                    {
                      OFFSET 8.78386 2.85353 -6.05362
                      CHANNELS 3 Zrotation Xrotation Yrotation
                      JOINT LeftHandThumb2
                      {
                        OFFSET 8.25498 -0.000116272 -0.000174407
                        CHANNELS 3 Zrotation Xrotation Yrotation
                        JOINT LeftHandThumb3
                        {
                          OFFSET 7.24822 0.000310058 5.81358e-005
                          CHANNELS 3 Zrotation Xrotation Yrotation
                          JOINT LeftHandThumb4
                          {
                            OFFSET 7.0004 -3.87568e-005 -0.000310057
                            CHANNELS 3 Zrotation Xrotation Yrotation
                            End Site
                            {
                              OFFSET 0 0 0
                            }
                          }
                        }
                      }
                    }
                    JOINT LeftHandIndex1
                    {
                      OFFSET 24.0991 -1.01537 -5.40558
                      CHANNELS 3 Zrotation Xrotation Yrotation
                      JOINT LeftHandIndex2
                      {
                        OFFSET 7.26759 -0.000290679 -0.000465086
                        CHANNELS 3 Zrotation Xrotation Yrotation
                        JOINT LeftHandIndex3
                        {
                          OFFSET 7.13628 -1.93787e-005 0.000232543
                          CHANNELS 3 Zrotation Xrotation Yrotation
                          JOINT LeftHandIndex4
                          {
                            OFFSET 5.46699 9.68932e-005 -0.000387571
                            CHANNELS 3 Zrotation Xrotation Yrotation
                            End Site
                            {
                              OFFSET 0 0 0
                            }
                          }
                        }
                      }
                    }
                    JOINT LeftHandMiddle1
                    {
                      OFFSET 24.4604 -2.52837 0.918567
                      CHANNELS 3 Zrotation Xrotation Yrotation
                      JOINT LeftHandMiddle2
                      {
                        OFFSET 7.41627 -5.81359e-005 0.000116271
                        CHANNELS 3 Zrotation Xrotation Yrotation
                        JOINT LeftHandMiddle3
                        {
                          OFFSET 8.76829 3.87573e-005 -7.75142e-005
                          CHANNELS 3 Zrotation Xrotation Yrotation
                          JOINT LeftHandMiddle4
                          {
                            OFFSET 6.07588 -0.00013565 -5.81356e-005
                            CHANNELS 3 Zrotation Xrotation Yrotation
                            End Site
                            {
                              OFFSET 0 0 0
                            }
                          }
                        }
                      }
                    }
                    JOINT LeftHandRing1
                    {
                      OFFSET 22.465 -1.97467 6.3466
                      CHANNELS 3 Zrotation Xrotation Yrotation
                      JOINT LeftHandRing2
                      {
                        OFFSET 7.36666 -0.000232544 0.000387571
                        CHANNELS 3 Zrotation Xrotation Yrotation
                        JOINT LeftHandRing3
                        {
                          OFFSET 8.07624 -0.000465087 -0.000203475
                          CHANNELS 3 Zrotation Xrotation Yrotation
                          JOINT LeftHandRing4
                          {
                            OFFSET 6.04433 0.00013565 3.87571e-005
                            CHANNELS 3 Zrotation Xrotation Yrotation
                            End Site
                            {
                              OFFSET 0 0 0
                            }
                          }
                        }
                      }
                    }
                    JOINT LeftHandPinky1
                    {
                      OFFSET 19.5278 0.352933 10.4295
                      CHANNELS 3 Zrotation Xrotation Yrotation
                      JOINT LeftHandPinky2
                      {
                        OFFSET 6.16525 5.8136e-005 -0.000251921
                        CHANNELS 3 Zrotation Xrotation Yrotation
                        JOINT LeftHandPinky3
                        {
                          OFFSET 6.14448 -0.000329434 -0.00510625
                          CHANNELS 3 Zrotation Xrotation Yrotation
                          JOINT LeftHandPinky4
                          {
                            OFFSET 4.98555 0.000116272 0.000116271
                            CHANNELS 3 Zrotation Xrotation Yrotation
                            End Site
                            {
                              OFFSET 0 0 0
                            }
                          }
                        }
                      }
                    }
                  }
                }
              }
            }
            JOINT RightShoulder
            {
              OFFSET 20.1309 -6.74152 -12.6063
              CHANNELS 3 Zrotation Xrotation Yrotation
              JOINT RightArm
              {
                OFFSET 34.2171 7.75146e-005 7.75146e-005
                CHANNELS 3 Zrotation Xrotation Yrotation
                JOINT RightForeArm
                {
                  OFFSET 65.4492 0.242543 -0.176501
                  CHANNELS 3 Zrotation Xrotation Yrotation
                  JOINT RightHand
                  {
                    OFFSET 67.3888 -0.0867388 0.0597442
                    CHANNELS 3 Zrotation Xrotation Yrotation
                    JOINT RightHandThumb1
                    {
                      OFFSET 8.78307 -2.85357 -6.05302
                      CHANNELS 3 Zrotation Xrotation Yrotation
                      JOINT RightHandThumb2
                      {
                        OFFSET 8.25493 -7.75145e-005 0
                        CHANNELS 3 Zrotation Xrotation Yrotation
                        JOINT RightHandThumb3
                        {
                          OFFSET 7.24797 -0.000174408 0.000155029
                          CHANNELS 3 Zrotation Xrotation Yrotation
                          JOINT RightHandThumb4
                          {
                            OFFSET 7.00062 0 0
                            CHANNELS 3 Zrotation Xrotation Yrotation
                            End Site
                            {
                              OFFSET 0 0 0
                            }
                          }
                        }
                      }
                    }
                    JOINT RightHandIndex1
                    {
                      OFFSET 24.0991 1.01525 -5.40578
                      CHANNELS 3 Zrotation Xrotation Yrotation
                      JOINT RightHandIndex2
                      {
                        OFFSET 7.26773 7.75144e-005 0.000232543
                        CHANNELS 3 Zrotation Xrotation Yrotation
                        JOINT RightHandIndex3
                        {
                          OFFSET 7.13572 -0.000310058 3.87571e-005
                          CHANNELS 3 Zrotation Xrotation Yrotation
                          JOINT RightHandIndex4
                          {
                            OFFSET 5.46717 0 3.87572e-005
                            CHANNELS 3 Zrotation Xrotation Yrotation
                            End Site
                            {
                              OFFSET 0 0 0
                            }
                          }
                        }
                      }
                    }
                    JOINT RightHandMiddle1
                    {
                      OFFSET 24.4603 2.52899 0.918547
                      CHANNELS 3 Zrotation Xrotation Yrotation
                      JOINT RightHandMiddle2
                      {
                        OFFSET 7.41641 -0.000116272 -0.000116272
                        CHANNELS 3 Zrotation Xrotation Yrotation
                        JOINT RightHandMiddle3
                        {
                          OFFSET 8.76765 -3.87577e-005 0.000232543
                          CHANNELS 3 Zrotation Xrotation Yrotation
                          JOINT RightHandMiddle4
                          {
                            OFFSET 6.07609 -0.000193787 -0.000116271
                            CHANNELS 3 Zrotation Xrotation Yrotation
                            End Site
                            {
                              OFFSET 0 0 0
                            }
                          }
                        }
                      }
                    }
                    JOINT RightHandRing1
                    {
                      OFFSET 22.465 1.97571 6.34696
                      CHANNELS 3 Zrotation Xrotation Yrotation
                      JOINT RightHandRing2
                      {
                        OFFSET 7.36684 0.000193786 0.000155029
                        CHANNELS 3 Zrotation Xrotation Yrotation
                        JOINT RightHandRing3
                        {
                          OFFSET 8.07614 -0.000271301 0
                          CHANNELS 3 Zrotation Xrotation Yrotation
                          JOINT RightHandRing4
                          {
                            OFFSET 6.04468 0.000232543 0
                            CHANNELS 3 Zrotation Xrotation Yrotation
                            End Site
                            {
                              OFFSET 0 0 0
                            }
                          }
                        }
                      }
                    }
                    JOINT RightHandPinky1
                    {
                      OFFSET 19.5277 -0.352346 10.4296
                      CHANNELS 3 Zrotation Xrotation Yrotation
                      JOINT RightHandPinky2
                      {
                        OFFSET 6.16508 0 0.000232543
                        CHANNELS 3 Zrotation Xrotation Yrotation
                        JOINT RightHandPinky3
                        {
                          OFFSET 6.14396 -0.000155048 -0.0048834
                          CHANNELS 3 Zrotation Xrotation Yrotation
                          JOINT RightHandPinky4
                          {
                            OFFSET 4.98577 -7.75146e-005 -7.75143e-005
                            CHANNELS 3 Zrotation Xrotation Yrotation
                            End Site
                            {
                              OFFSET 0 0 0
                            }
                          }
                        }
                      }
                    }
                  }
                }
              }
            }
          }
        }
      }
    }
  }
}
MOTION
Frames:	4
Frame Time:	0.0333333
0 0 0 -90 -7.01671e-015 -180 -10.9012 14.0457 -115.658 -175.82 -27.279 -95.6327 -0.294751 -0.39587 -36.3023 -12.0548 0.208744 48.2826 -0.565691 0.102882 58.0799 -1.77439e-006 -0.000353102 -86.4974 -178.66 -18.9187 -106.391 0.0139982 -0.0649401 -27.2803 -3.79583 -6.98402 50.2318 1.49981 -0.730786 57.5661 -5.81261e-007 6.03213e-006 -86.4974 0.00272482 0.0061439 121.992 8.81051 6.12961 -10.6525 7.7998 5.31445 -14.3624 -1.60221 3.15135 11.6177 1.30825 -9.62786 18.206 5.28224 -19.6304 44.8109 99.4994 22.6089 -26.2462 54.7338 36.7001 -21.8672 1.59306 -11.3023 99.5759 -9.94382 26.8225 26.179 -161.381 3.2827 148.149 0.000450246 -9.93083e-005 4.61116 0.000248617 4.41921e-005 0.917229 0.00024866 -0.00124908 -0.00013959 127.932 88.2144 -121.426 -0.000429887 -0.000255751 0.182364 0.000953844 -0.000757532 2.15197 -0.000543004 -0.000561136 -0.00046531 146.315 86.6419 -125.512 1.0219e-005 -0.00031695 8.77173 0.000768827 -0.00075098 0.719043 -0.000541295 -0.000401116 0.0001588 143.498 86.8892 -118.694 7.30378e-005 -0.000908662 12.5631 0.00119536 -0.000518178 4.51168 -0.000618984 -0.000836384 0.00072357 89.3679 85.9876 -60.4904 0.000915952 -0.00129981 7.33945 -0.000237789 -0.000224163 4.51251 -2.56136e-005 -5.16335e-005 -0.000367124 -99.8675 -23.5701 -20.9169 -75.5883 -23.7758 16.1128 0.0265817 11.5768 37.4537 7.58787 3.85959 -6.19373 158.645 1.25113 154.969 -0.00012689 4.63873e-005 18.1945 0.000121322 9.71978e-005 11.9586 -3.05176e-005 -6.10352e-005 -180 -36.1378 -86.5127 -17.8286 -0.000188248 -0.00037364 14.4448 0.000153428 4.36656e-005 10.5795 -8.37189e-005 -0.000182955 177.676 1.55973 -86.8794 35.0762 1.44928e-005 -0.000321614 17.605 -3.83308e-005 0.00039527 18.4315 -5.07263e-005 -0.00012197 177.676 63.3188 -87.7414 103.105 7.86468e-005 -0.000345901 21.6995 -0.0001738 0.000802897 22.5464 2.43303e-005 -0.000152462 177.676 63.1416 -86.0856 102.683 -0.000641675 0.00173725 24.1172 0.000197569 -0.00114631 22.3016 -1.959e-005 -0.000106724 177.676 
0 0 0 -90 -7.01671e-015 -180 -10.8501 14.0395 -115.8 -175.907 -27.1615 -95.787 -0.296711 -0.39743 -36.377 -12.0219 0.296275 48.361 -0.565514 0.103638 58.0011 -1.87343e-006 -0.000354431 -86.4974 -178.651 -18.8362 -106.487 0.0152737 -0.0619335 -27.3847 -3.73391 -6.9922 50.3056 1.49981 -0.730896 57.5661 -5.83589e-007 -1.16499e-005 -86.4974 0.00270089 0.00615338 122.094 8.92807 5.94479 -10.5989 7.59166 5.16343 -14.3668 -1.64517 3.21645 11.7589 1.12344 -9.63991 17.9915 5.10506 -19.6481 44.7028 99.8954 22.8364 -25.1748 54.1808 38.1103 -20.7884 1.63476 -10.3788 97.4128 -12.9951 26.2053 29.0449 -163.859 5.77727 149.401 0.00043158 -0.000130353 5.3105 0.000256906 5.55302e-005 2.2393 0.000248661 -0.00124908 -0.00013959 120.935 87.5262 -113.354 -0.00046328 -0.000264192 0.130062 0.000971714 -0.000769767 2.07992 -0.000543004 -0.000585285 -0.00046531 146.829 86.0343 -125.501 5.98639e-006 -0.000300642 8.75743 0.000777707 -0.000733588 1.68083 -0.000554098 -0.000281761 0.000182704 150.085 86.6469 -124.789 9.25754e-005 -0.000901323 12.5489 0.00120634 -0.000520746 5.47269 -0.000618983 -0.000947124 0.000723569 97.5378 86.7257 -68.6744 0.000937139 -0.0012864 7.96001 -0.000206467 -0.000258232 5.47207 -2.56138e-005 -7.25465e-005 -0.000367124 -99.8699 -23.6117 -20.6686 -75.3487 -23.9421 16.5008 0.0267262 11.5485 37.8801 7.54842 3.60566 -6.1019 158.645 1.25081 154.969 -0.000127327 2.51672e-005 18.1946 0.000122013 8.03893e-005 11.9586 -3.05176e-005 -6.10352e-005 -180 -36.138 -86.5127 -17.8289 -0.000188574 -0.000424221 14.4449 0.000154211 -2.88624e-005 10.5795 -9.27903e-005 -3.04925e-005 177.676 1.55968 -86.8794 35.0761 1.87312e-005 -0.000191515 17.605 -3.68063e-005 0.000302774 18.4315 -5.25825e-005 -0.000167709 177.676 63.3195 -87.7415 103.105 7.39077e-005 -0.000389929 21.6995 -0.000169803 0.000709042 22.5464 1.52588e-005 7.01094e-015 177.676 63.142 -86.0856 102.683 -0.000639887 0.00168607 24.1172 0.000196836 -0.00116871 22.3016 -2.20649e-005 -0.000167709 177.676 
0 0 0 -90 -7.01671e-015 -180 -10.7748 13.9708 -115.999 -175.783 -27.0859 -95.8716 -0.294491 -0.393387 -36.4509 -11.8941 0.180486 48.3841 -0.565639 0.103812 57.991 -1.92382e-006 -0.000348355 -86.4974 -178.717 -18.6997 -106.657 0.0168662 -0.0583611 -27.4882 -3.65555 -7.0496 50.3978 1.49989 -0.730698 57.5661 -5.50848e-007 -4.70097e-005 -86.4974 0.00270545 0.0061616 122.238 9.05934 5.72401 -10.5531 7.33513 5.01117 -14.428 -1.73738 3.36177 12.0033 0.969261 -9.84023 17.7218 4.86639 -19.4989 44.6255 100.526 23.0559 -24.2337 53.5117 39.5217 -20.453 1.42569 -9.68207 96.2877 -15.5275 24.8257 31.2728 -166.649 8.2786 150.998 0.000454078 -0.000146679 6.10898 0.000265226 6.21748e-005 3.74821 0.00024866 -0.00124908 -0.00013959 116.876 86.7143 -108.069 -0.000442913 -0.000221366 0.0893656 0.000967135 -0.000812147 2.0238 -0.000543004 -0.000610381 -0.00046531 147.418 85.3995 -125.488 2.5793e-005 -0.000298523 8.74592 0.00080379 -0.000719858 2.77468 -0.000554098 -0.000308543 0.000182703 156.558 86.3419 -130.7 0.000111963 -0.000906614 12.5374 0.00122495 -0.000500828 6.56659 -0.000636913 -0.00072827 0.000729121 112.271 87.4366 -83.4155 0.000931822 -0.00132802 8.66783 -0.000200607 -0.000251518 6.56659 -2.56141e-005 -0.000110499 -0.000367124 -99.9486 -23.6525 -20.4634 -74.963 -24.2569 16.8809 0.0275141 11.9346 38.3433 7.3358 3.24592 -5.9341 158.644 1.2509 154.969 -0.000125857 -1.61128e-005 18.1945 0.000121109 5.30913e-005 11.9586 -3.05176e-005 -6.10352e-005 -180 -36.1383 -86.5127 -17.8291 -0.000188007 -0.000534295 14.4448 0.000160912 0.000119489 10.5795 -9.34091e-005 -4.57387e-005 177.676 1.5597 -86.8794 35.0761 2.28265e-005 -0.000209205 17.605 -4.59334e-005 0.000478178 18.4315 -4.16548e-005 -0.000274432 177.676 63.3198 -87.7415 103.106 7.91382e-005 -0.000484435 21.6995 -0.000175201 0.000902124 22.5463 1.40213e-005 -3.04925e-005 177.676 63.1432 -86.0857 102.684 -0.000641362 0.00157143 24.1172 0.000197914 -0.00117865 22.3016 -1.64963e-005 -3.04925e-005 177.676 
0 0 0 -90 -7.01671e-015 -180 -10.7306 13.7261 -116.122 -175.757 -26.992 -95.8146 -0.301469 -0.400651 -36.5936 -11.7716 0.0356722 48.4184 -0.565865 0.102147 58.1571 -1.68662e-006 -0.00033757 -86.4974 -178.965 -18.4903 -106.763 0.0178337 -0.0561202 -27.6492 -3.60782 -6.96861 50.5432 1.49989 -0.730757 57.5661 -5.41557e-007 -0.000117055 -86.4974 0.00270744 0.00618701 122.339 9.16429 5.50896 -10.5418 7.19055 4.86661 -14.4863 -1.78186 3.42989 12.1275 0.758378 -9.80665 17.5104 4.4737 -19.428 44.5914 100.991 23.1264 -23.8146 52.6819 39.7054 -18.5422 1.70625 -7.36953 94.6337 -17.8375 23.8164 32.6574 -169.658 10.6263 152.857 0.000473268 -0.000209458 6.95785 0.000260735 0.000118737 5.35271 0.000248658 -0.00124908 -0.00013959 114.684 85.8356 -104.572 -0.000419924 -0.000223829 0.0586741 0.000962093 -0.00077662 1.98147 -0.000543003 -0.000650061 -0.00046531 148.045 84.7637 -125.474 1.05927e-005 -0.000314682 8.73741 0.000825209 -0.000704322 3.93898 -0.000554098 -0.00035016 0.000182703 162.418 85.9888 -135.964 0.00011851 -0.000915903 12.5289 0.00126207 -0.000496941 7.73092 -0.000636912 -0.000744288 0.000729121 137.027 87.8832 -108.178 0.000937576 -0.00129768 9.42065 -0.000182864 -0.000249805 7.73068 -2.56147e-005 -0.000195362 -0.000367124 -100.001 -23.6524 -20.4896 -74.8187 -24.3021 17.4859 0.0273254 11.4627 38.7743 7.26244 2.53295 -6.03104 158.645 1.25114 154.969 -0.000126372 -9.4058e-005 18.1945 0.000121454 -9.08262e-007 11.9586 -3.05176e-005 -7.6294e-005 -180 -36.1389 -86.5128 -17.8298 -0.000187307 -0.000333827 14.4448 0.000161016 0.000102747 10.5795 -9.40278e-005 -6.0985e-005 177.676 1.55973 -86.8795 35.0762 2.29316e-005 -0.000246575 17.605 -4.58028e-005 0.000455103 18.4315 -4.94888e-005 -9.14774e-005 177.676 63.3213 -87.7415 103.107 9.97252e-005 -0.000326698 21.6994 -0.00017475 0.000884345 22.5463 1.40213e-005 -3.04925e-005 177.676 63.1411 -86.0856 102.682 -0.000632473 0.00177857 24.1172 0.00019779 -0.00121365 22.3016 -1.64963e-005 -3.04925e-005 177.676 
